# xmcd
#
# Track frame offsets: 
#        174
#        17382
#        28347
#        41798
#        56916
#        65203
#        80176
#        93058
#        109345
#        124929
#        137700
#        157114
#
# Disc length: 2383 seconds
#
# Revision: 2
# Processed by: cddbd v1.5.2PL0 Copyright (c) Steve Scherf et al.
# Submitted via: ExactAudioCopyFreeDBPlugin 1.0
#
DISCID=b0094d0c
DTITLE=Jesper Munk - For In My Way It Lies
DYEAR=2013
DGENRE=Blues
TTITLE0=Seventh Street
TTITLE1=Hungry For Love
TTITLE2=The Everlasting Good
TTITLE3=You Won`t See Me Go
TTITLE4=John`s A Man
TTITLE5=I Love You
TTITLE6=Our Little Boathouse
TTITLE7=Drunk On You
TTITLE8=Timeless Throne
TTITLE9=Blood Or Red Wine
TTITLE10=Lady River Song
TTITLE11=Blue Shadows
EXTD=YEAR: 2013
EXTT0=
EXTT1=
EXTT2=
EXTT3=
EXTT4=
EXTT5=
EXTT6=
EXTT7=
EXTT8=
EXTT9=
EXTT10=
EXTT11=
PLAYORDER=
